{"title":"Thomas and Friends Santas Little Engine 2013 DVDRip x264 AC3-MiL","uid":9750685,"size":590482417,"categoryP":"video","categoryS":"movies","magnet":"?xt=urn:btih:d25332b2dcae82a57f05cfec0378aac26660cb1b&amp;dn=Thomas+and+Friends+Santas+Little+Engine+2013+DVDRip+x264+AC3-MiL&amp;tr=udp%3A%2F%2Ftracker.openbittorrent.com%3A80&amp;tr=udp%3A%2F%2Fopen.demonii.com%3A1337&amp;tr=udp%3A%2F%2Ftracker.coppersurfer.tk%3A6969&amp;tr=udp%3A%2F%2Fexodus.desync.com%3A6969","seeders":3,"leechers":1,"uploader":"lokioddin","files":4,"time":1394659617,"description":"SilverTorrent - Clean And Verified Torrents Download\n\n------------------------------------------------------\n\n[img]http://s27.postimg.org/d64837iyr/5xqa_Z.png[/img]\n\n[b]Thomas and Friends Santas Little Engine 2013 DVDRip x264 AC3-MiLLENiUM                  \n\nGeneral\n\nSource...............: DVDR_NTSC [THANKS]\nIMDb Information.... : http://www.imdb.com/title/tt3068252/\nSample Included......: yes\n\nGeneral\nComplete name                            : Thomas and Friends Santas Little Engine 2013 DVDRip x264 AC3-MiLLENiUM.mkv\nFormat                                   : Matroska\nFormat version                           : Version 2\nFile size                                : 543 MiB\nDuration                                 : 58mn 55s\nOverall bit rate mode                    : Variable\nOverall bit rate                         : 1 288 Kbps\nEncoded date                             : UTC 2014-03-12 18:41:35\nWriting application                      : mkvmerge v6.8.0 ('Theme for Great Cities') 32bit built on Mar  2 2014 21:27:07\nWriting library                          : libebml v1.3.0 + libmatroska v1.4.1\n\nVideo\nID                                       : 1\nFormat                                   : AVC\nFormat/Info                              : Advanced Video Codec\nFormat profile                           : &lt;a class=&quot;__cf_email__&quot; href=&quot;/cdn-cgi/l/email-protection&quot; data-cfemail=&quot;9bd3f2fcf3dbd7afb5aa&quot;&gt;[email&amp;#160;protected]&lt;/a&gt;&lt;script cf-hash='f9e31' type=&quot;text/javascript&quot;&gt;\n/* &lt;![CDATA[ */!function(){try{var t=&quot;currentScript&quot;in document?document.currentScript:function(){for(var t=document.getElementsByTagName(&quot;script&quot;),e=t.length;e--;)if(t[e].getAttribute(&quot;cf-hash&quot;))return t[e]}();if(t&amp;&amp;t.previousSibling){var e,r,n,i,c=t.previousSibling,a=c.getAttribute(&quot;data-cfemail&quot;);if(a){for(e=&quot;&quot;,r=parseInt(a.substr(0,2),16),n=2;a.length-n;n+=2)i=parseInt(a.substr(n,2),16)^r,e+=String.fromCharCode(i);e=document.createTextNode(e),c.parentNode.replaceChild(e,c)}}}catch(u){}}();/* ]]&gt; */&lt;/script&gt;\nFormat settings, CABAC                   : Yes\nFormat settings, ReFrames                : 3 frames\nCodec ID                                 : V_MPEG4/ISO/AVC\nDuration                                 : 58mn 55s\nBit rate mode                            : Variable\nBit rate                                 : 1 071 Kbps\nMaximum bit rate                         : 40.0 Mbps\nWidth                                    : 656 pixels\nHeight                                   : 480 pixels\nDisplay aspect ratio                     : 4:3\nFrame rate mode                          : Constant\nFrame rate                               : 23.976 fps\nColor space                              : YUV\nChroma subsampling                       : 4:2:0\nBit depth                                : 8 bits\nScan type                                : Progressive\nBits/(Pixel*Frame)                       : 0.142\nStream size                              : 451 MiB (83%)\nWriting library                          : x264 core 140 r2377 1ca7bb9\n\nAudio\nID                                       : 2\nFormat                                   : AC-3\nFormat/Info                              : Audio Coding 3\nMode extension                           : CM (complete main)\nFormat settings, Endianness              : Big\nCodec ID                                 : A_AC3\nDuration                                 : 58mn 55s\nBit rate mode                            : Constant\nBit rate                                 : 192 Kbps\nChannel(s)                               : 2 channels\nChannel positions                        : Front: L R\nSampling rate                            : 48.0 KHz\nBit depth                                : 16 bits\nCompression mode                         : Lossy\nStream size                              : 80.9 MiB (15%)\nLanguage                                 : English\nDefault                                  : Yes\nForced                                   : No\n\nPlot\n\nHo Ho Ho! Thomas is full steam ahead as a Really Useful Reindeer, saving the day by guiding Santa's sleigh straight to the Sodor Christmas celebration! When snowfall transforms the island of Sodor into a winter wonderland, Thomas discovers that being safe is the best route to holiday fun. Percy makes everyone's Christmas wishes come true and Gordon discovers his friends' special skills are the gifts that keep on giving, all year long! Thomas delivers the true spirit of the season as Santa's Little Engine! Features the episodes: Santa's Little Engine, No Snow for Thomas, Frozen Turntable, The Missing Christmas Decorations and Snow Tracks.\n\nScreenshots\n[/b][img]http://s27.postimg.org/w93ok8atf/vlcsnap_2014_03_12_19h43m51s134.png[/img]\n\n[img]http://s27.postimg.org/4kh1cpnsz/vlcsnap_2014_03_12_19h44m24s198.png[/img]\n\n[img]http://s27.postimg.org/fhid1hakj/vlcsnap_2014_03_12_19h44m31s14.png[/img]\n\n[img]http://s27.postimg.org/627320hxf/vlcsnap_2014_03_12_19h44m38s80.png[/img]\n\n[img]http://s27.postimg.org/70iuqk5vn/vlcsnap_2014_03_12_19h45m07s114.png[/img]\n\n[b]Greetz\n\nTo all those who stay true to the game.[/b]\n\nSilverTorrent - Clean And Verified Torrents Download\n\n------------------------------------------------------","torrent":{"xt":"urn:btih:d25332b2dcae82a57f05cfec0378aac26660cb1b","amp;dn":"Thomas+and+Friends+Santas+Little+Engine+2013+DVDRip+x264+AC3-MiL","amp;tr":["udp%3A%2F%2Ftracker.openbittorrent.com%3A80","udp%3A%2F%2Fopen.demonii.com%3A1337","udp%3A%2F%2Ftracker.coppersurfer.tk%3A6969","udp%3A%2F%2Fexodus.desync.com%3A6969"],"infoHash":"d25332b2dcae82a57f05cfec0378aac26660cb1b","infoHashBuffer":{"type":"Buffer","data":[210,83,50,178,220,174,130,165,127,5,207,236,3,120,170,194,102,96,203,27]},"announce":[],"urlList":[]}}